{"title":"John Bishop - Live Rollercoaster Tour (2012) DVDRip XviD AC3 pea","uid":8999247,"size":733736960,"categoryP":"video","categoryS":"movies","magnet":"?xt=urn:btih:28f4ff83fe1babe7708470bd81b87b8213910085&amp;dn=John+Bishop+-+Live+Rollercoaster+Tour+%282012%29+DVDRip+XviD+AC3+pea&amp;tr=udp%3A%2F%2Ftracker.openbittorrent.com%3A80&amp;tr=udp%3A%2F%2Fopen.demonii.com%3A1337&amp;tr=udp%3A%2F%2Ftracker.coppersurfer.tk%3A6969&amp;tr=udp%3A%2F%2Fexodus.desync.com%3A6969","seeders":2,"leechers":0,"uploader":"peaSoup","files":-1,"time":1380925465,"description":" &lt;a href=&quot;http://imageshack.us/a/img809/4144/oj0i.jpg&quot; rel=&quot;nofollow&quot; target=&quot;_NEW&quot;&gt;http://imageshack.us/a/img809/4144/oj0i.jpg&lt;/a&gt;                                         &lt;a href=&quot; http://imageshack.us/a/img24/8364/d8vo.jpg&quot; rel=&quot;nofollow&quot; target=&quot;_NEW&quot;&gt; http://imageshack.us/a/img24/8364/d8vo.jpg&lt;/a&gt;                                          &lt;a href=&quot; http://imageshack.us/a/img14/343/uzn2.jpg&quot; rel=&quot;nofollow&quot; target=&quot;_NEW&quot;&gt; http://imageshack.us/a/img14/343/uzn2.jpg&lt;/a&gt;                                           &lt;a href=&quot; http://imageshack.us/a/img594/3395/y5uh.jpg&quot; rel=&quot;nofollow&quot; target=&quot;_NEW&quot;&gt; http://imageshack.us/a/img594/3395/y5uh.jpg&lt;/a&gt;                                         &lt;a href=&quot; http://imageshack.us/a/img841/1582/qr7a.jpg&quot; rel=&quot;nofollow&quot; target=&quot;_NEW&quot;&gt; http://imageshack.us/a/img841/1582/qr7a.jpg&lt;/a&gt;                                          Format                                   : AVI\nFormat/Info                              : Audio Video Interleave\nFile size                                : 700 MiB\nDuration                                 : 1h 33mn\nOverall bit rate                         : 1 052 Kbps\nWriting application                      : VirtualDubMod 1.5.4.1 (build 2178/release)\nWriting library                          : VirtualDubMod build 2178/release\n\nVideo\nID                                       : 0\nFormat                                   : MPEG-4 Visual\nFormat profile                           : Advanced Simple@L5\nFormat settings, BVOP                    : 1\nFormat settings, QPel                    : No\nFormat settings, GMC                     : No warppoints\nFormat settings, Matrix                  : Custom\nCodec ID                                 : XVID\nCodec ID/Hint                            : XviD\nDuration                                 : 1h 33mn\nBit rate                                 : 853 Kbps\nWidth                                    : 720 pixels\nHeight                                   : 416 pixels\nDisplay aspect ratio                     : 1.731\nFrame rate                               : 25.000 fps\nColor space                              : YUV\nChroma subsampling                       : 4:2:0\nBit depth                                : 8 bits\nScan type                                : Progressive\nCompression mode                         : Lossy\nBits/(Pixel*Frame)                       : 0.114\nStream size                              : 567 MiB (81%)\nWriting library                          : XviD 1.2.1 (UTC 2008-12-04)\n\nAudio\nID                                       : 1\nFormat                                   : AC-3\nFormat/Info                              : Audio Coding 3\nMode extension                           : CM (complete main)\nFormat settings, Endianness              : Big\nCodec ID                                 : 2000\nDuration                                 : 1h 33mn\nBit rate mode                            : Constant\nBit rate                                 : 192 Kbps\nChannel(s)                               : 2 channels\nChannel positions                        : Front: L R\nSampling rate                            : 48.0 KHz\nBit depth                                : 16 bits\nCompression mode                         : Lossy\nStream size                              : 128 MiB (18%)\nAlignment                                : Split accross interleaves\nInterleave, duration                     : 96 ms (2.40 video frames)\nInterleave, preload duration             : 96 ms\nLanguage                                 : English\n\n","torrent":{"xt":"urn:btih:28f4ff83fe1babe7708470bd81b87b8213910085","amp;dn":"John+Bishop+-+Live+Rollercoaster+Tour+%282012%29+DVDRip+XviD+AC3+pea","amp;tr":["udp%3A%2F%2Ftracker.openbittorrent.com%3A80","udp%3A%2F%2Fopen.demonii.com%3A1337","udp%3A%2F%2Ftracker.coppersurfer.tk%3A6969","udp%3A%2F%2Fexodus.desync.com%3A6969"],"infoHash":"28f4ff83fe1babe7708470bd81b87b8213910085","infoHashBuffer":{"type":"Buffer","data":[40,244,255,131,254,27,171,231,112,132,112,189,129,184,123,130,19,145,0,133]},"announce":[],"urlList":[]}}